<mxfile host="app.diagrams.net" modified="2021-03-01T19:39:32.790Z" agent="5.0 (Macintosh; Intel Mac OS X 10_15_7) AppleWebKit/537.36 (KHTML, like Gecko) Chrome/88.0.4324.182 Safari/537.36" etag="b8N2fX0yQo4xl2Xuns7V" version="14.4.3" type="github">
  <diagram id="prtHgNgQTEPvFCAcTncT" name="Page-1">
    <mxGraphModel dx="872" dy="514" grid="1" gridSize="10" guides="1" tooltips="1" connect="1" arrows="1" fold="1" page="1" pageScale="1" pageWidth="827" pageHeight="1169" math="0" shadow="0">
      <root>
        <mxCell id="0" />
        <mxCell id="1" parent="0" />
        <mxCell id="X8sPkcAYPl1wZ6rDQqbT-2" value="" style="whiteSpace=wrap;html=1;aspect=fixed;" vertex="1" parent="1">
          <mxGeometry x="5" y="150" width="195" height="195" as="geometry" />
        </mxCell>
        <mxCell id="X8sPkcAYPl1wZ6rDQqbT-3" value="" style="whiteSpace=wrap;html=1;aspect=fixed;" vertex="1" parent="1">
          <mxGeometry x="320" y="150" width="200" height="200" as="geometry" />
        </mxCell>
        <mxCell id="X8sPkcAYPl1wZ6rDQqbT-38" value="" style="edgeStyle=orthogonalEdgeStyle;rounded=0;orthogonalLoop=1;jettySize=auto;html=1;" edge="1" parent="1" source="X8sPkcAYPl1wZ6rDQqbT-4" target="X8sPkcAYPl1wZ6rDQqbT-3">
          <mxGeometry relative="1" as="geometry" />
        </mxCell>
        <mxCell id="X8sPkcAYPl1wZ6rDQqbT-4" value="" style="whiteSpace=wrap;html=1;aspect=fixed;" vertex="1" parent="1">
          <mxGeometry x="620" y="150" width="200" height="200" as="geometry" />
        </mxCell>
        <mxCell id="X8sPkcAYPl1wZ6rDQqbT-5" value="Client" style="text;html=1;strokeColor=none;fillColor=none;align=center;verticalAlign=middle;whiteSpace=wrap;rounded=0;" vertex="1" parent="1">
          <mxGeometry x="30" y="160" width="130" height="20" as="geometry" />
        </mxCell>
        <mxCell id="X8sPkcAYPl1wZ6rDQqbT-6" value="Server" style="text;html=1;strokeColor=none;fillColor=none;align=center;verticalAlign=middle;whiteSpace=wrap;rounded=0;" vertex="1" parent="1">
          <mxGeometry x="360" y="160" width="116" height="20" as="geometry" />
        </mxCell>
        <mxCell id="X8sPkcAYPl1wZ6rDQqbT-7" value="Database" style="text;html=1;strokeColor=none;fillColor=none;align=center;verticalAlign=middle;whiteSpace=wrap;rounded=0;" vertex="1" parent="1">
          <mxGeometry x="662.5" y="237.5" width="115" height="20" as="geometry" />
        </mxCell>
        <mxCell id="X8sPkcAYPl1wZ6rDQqbT-14" value="" style="endArrow=classic;html=1;entryX=-0.015;entryY=0.045;entryDx=0;entryDy=0;entryPerimeter=0;" edge="1" parent="1" target="X8sPkcAYPl1wZ6rDQqbT-3">
          <mxGeometry relative="1" as="geometry">
            <mxPoint x="200" y="160" as="sourcePoint" />
            <mxPoint x="310" y="160" as="targetPoint" />
          </mxGeometry>
        </mxCell>
        <mxCell id="X8sPkcAYPl1wZ6rDQqbT-15" value="New game data" style="edgeLabel;resizable=0;html=1;align=center;verticalAlign=middle;" connectable="0" vertex="1" parent="X8sPkcAYPl1wZ6rDQqbT-14">
          <mxGeometry relative="1" as="geometry">
            <mxPoint y="10" as="offset" />
          </mxGeometry>
        </mxCell>
        <mxCell id="X8sPkcAYPl1wZ6rDQqbT-16" value="Request" style="edgeLabel;resizable=0;html=1;align=left;verticalAlign=bottom;" connectable="0" vertex="1" parent="X8sPkcAYPl1wZ6rDQqbT-14">
          <mxGeometry x="-1" relative="1" as="geometry" />
        </mxCell>
        <mxCell id="X8sPkcAYPl1wZ6rDQqbT-17" value="" style="endArrow=classic;html=1;" edge="1" parent="1">
          <mxGeometry relative="1" as="geometry">
            <mxPoint x="200" y="340" as="sourcePoint" />
            <mxPoint x="320" y="340" as="targetPoint" />
            <Array as="points">
              <mxPoint x="270" y="340" />
            </Array>
          </mxGeometry>
        </mxCell>
        <mxCell id="X8sPkcAYPl1wZ6rDQqbT-18" value="Object ID" style="edgeLabel;resizable=0;html=1;align=center;verticalAlign=middle;" connectable="0" vertex="1" parent="X8sPkcAYPl1wZ6rDQqbT-17">
          <mxGeometry relative="1" as="geometry">
            <mxPoint x="20" y="10" as="offset" />
          </mxGeometry>
        </mxCell>
        <mxCell id="X8sPkcAYPl1wZ6rDQqbT-19" value="Request" style="edgeLabel;resizable=0;html=1;align=left;verticalAlign=bottom;" connectable="0" vertex="1" parent="X8sPkcAYPl1wZ6rDQqbT-17">
          <mxGeometry x="-1" relative="1" as="geometry" />
        </mxCell>
        <mxCell id="X8sPkcAYPl1wZ6rDQqbT-26" value="" style="endArrow=classic;html=1;" edge="1" parent="1">
          <mxGeometry relative="1" as="geometry">
            <mxPoint x="330" y="249.5" as="sourcePoint" />
            <mxPoint x="190" y="249.5" as="targetPoint" />
          </mxGeometry>
        </mxCell>
        <mxCell id="X8sPkcAYPl1wZ6rDQqbT-27" value="All game data" style="edgeLabel;resizable=0;html=1;align=center;verticalAlign=middle;" connectable="0" vertex="1" parent="X8sPkcAYPl1wZ6rDQqbT-26">
          <mxGeometry relative="1" as="geometry">
            <mxPoint x="-20" y="10" as="offset" />
          </mxGeometry>
        </mxCell>
        <mxCell id="X8sPkcAYPl1wZ6rDQqbT-28" value="Response" style="edgeLabel;resizable=0;html=1;align=left;verticalAlign=bottom;" connectable="0" vertex="1" parent="X8sPkcAYPl1wZ6rDQqbT-26">
          <mxGeometry x="-1" relative="1" as="geometry">
            <mxPoint x="-60" as="offset" />
          </mxGeometry>
        </mxCell>
        <mxCell id="X8sPkcAYPl1wZ6rDQqbT-29" value="" style="endArrow=classic;html=1;" edge="1" parent="1">
          <mxGeometry relative="1" as="geometry">
            <mxPoint x="510" y="169.5" as="sourcePoint" />
            <mxPoint x="620" y="170" as="targetPoint" />
          </mxGeometry>
        </mxCell>
        <mxCell id="X8sPkcAYPl1wZ6rDQqbT-30" value="New game data" style="edgeLabel;resizable=0;html=1;align=center;verticalAlign=middle;" connectable="0" vertex="1" parent="X8sPkcAYPl1wZ6rDQqbT-29">
          <mxGeometry relative="1" as="geometry">
            <mxPoint x="5" y="10.5" as="offset" />
          </mxGeometry>
        </mxCell>
        <mxCell id="X8sPkcAYPl1wZ6rDQqbT-31" value="Mongo client" style="edgeLabel;resizable=0;html=1;align=left;verticalAlign=bottom;" connectable="0" vertex="1" parent="X8sPkcAYPl1wZ6rDQqbT-29">
          <mxGeometry x="-1" relative="1" as="geometry">
            <mxPoint x="10" as="offset" />
          </mxGeometry>
        </mxCell>
        <mxCell id="X8sPkcAYPl1wZ6rDQqbT-32" value="" style="endArrow=classic;html=1;" edge="1" parent="1">
          <mxGeometry relative="1" as="geometry">
            <mxPoint x="520" y="340" as="sourcePoint" />
            <mxPoint x="620" y="340" as="targetPoint" />
          </mxGeometry>
        </mxCell>
        <mxCell id="X8sPkcAYPl1wZ6rDQqbT-33" value="Object ID" style="edgeLabel;resizable=0;html=1;align=center;verticalAlign=middle;" connectable="0" vertex="1" parent="X8sPkcAYPl1wZ6rDQqbT-32">
          <mxGeometry relative="1" as="geometry">
            <mxPoint x="10" y="10" as="offset" />
          </mxGeometry>
        </mxCell>
        <mxCell id="X8sPkcAYPl1wZ6rDQqbT-34" value="Mongo client" style="edgeLabel;resizable=0;html=1;align=left;verticalAlign=bottom;" connectable="0" vertex="1" parent="X8sPkcAYPl1wZ6rDQqbT-32">
          <mxGeometry x="-1" relative="1" as="geometry" />
        </mxCell>
        <mxCell id="X8sPkcAYPl1wZ6rDQqbT-35" value="" style="endArrow=classic;html=1;" edge="1" parent="1">
          <mxGeometry relative="1" as="geometry">
            <mxPoint x="630" y="249.5" as="sourcePoint" />
            <mxPoint x="520" y="250" as="targetPoint" />
          </mxGeometry>
        </mxCell>
        <mxCell id="X8sPkcAYPl1wZ6rDQqbT-36" value="All game data" style="edgeLabel;resizable=0;html=1;align=center;verticalAlign=middle;" connectable="0" vertex="1" parent="X8sPkcAYPl1wZ6rDQqbT-35">
          <mxGeometry relative="1" as="geometry">
            <mxPoint x="-15" y="10.5" as="offset" />
          </mxGeometry>
        </mxCell>
        <mxCell id="X8sPkcAYPl1wZ6rDQqbT-37" value="Mongo client" style="edgeLabel;resizable=0;html=1;align=left;verticalAlign=bottom;" connectable="0" vertex="1" parent="X8sPkcAYPl1wZ6rDQqbT-35">
          <mxGeometry x="-1" relative="1" as="geometry">
            <mxPoint x="-80" y="0.5" as="offset" />
          </mxGeometry>
        </mxCell>
        <mxCell id="X8sPkcAYPl1wZ6rDQqbT-39" value="" style="rounded=0;whiteSpace=wrap;html=1;" vertex="1" parent="1">
          <mxGeometry x="55" y="190" width="80" height="30" as="geometry" />
        </mxCell>
        <mxCell id="X8sPkcAYPl1wZ6rDQqbT-40" value="" style="rounded=0;whiteSpace=wrap;html=1;" vertex="1" parent="1">
          <mxGeometry x="55" y="230" width="85" height="50" as="geometry" />
        </mxCell>
        <mxCell id="X8sPkcAYPl1wZ6rDQqbT-41" value="" style="rounded=0;whiteSpace=wrap;html=1;" vertex="1" parent="1">
          <mxGeometry x="50" y="290" width="90" height="40" as="geometry" />
        </mxCell>
        <mxCell id="X8sPkcAYPl1wZ6rDQqbT-42" value="GamesGrid" style="text;html=1;strokeColor=none;fillColor=none;align=center;verticalAlign=middle;whiteSpace=wrap;rounded=0;" vertex="1" parent="1">
          <mxGeometry x="77.5" y="260" width="40" height="17.5" as="geometry" />
        </mxCell>
        <mxCell id="X8sPkcAYPl1wZ6rDQqbT-43" value="Game" style="text;html=1;strokeColor=none;fillColor=none;align=center;verticalAlign=middle;whiteSpace=wrap;rounded=0;" vertex="1" parent="1">
          <mxGeometry x="75" y="300" width="40" height="20" as="geometry" />
        </mxCell>
        <mxCell id="X8sPkcAYPl1wZ6rDQqbT-44" value="GameForm" style="text;html=1;strokeColor=none;fillColor=none;align=center;verticalAlign=middle;whiteSpace=wrap;rounded=0;" vertex="1" parent="1">
          <mxGeometry x="77.5" y="195" width="40" height="20" as="geometry" />
        </mxCell>
        <mxCell id="X8sPkcAYPl1wZ6rDQqbT-47" value="" style="edgeStyle=orthogonalEdgeStyle;rounded=0;orthogonalLoop=1;jettySize=auto;html=1;" edge="1" parent="1" source="X8sPkcAYPl1wZ6rDQqbT-46" target="X8sPkcAYPl1wZ6rDQqbT-6">
          <mxGeometry relative="1" as="geometry" />
        </mxCell>
        <mxCell id="X8sPkcAYPl1wZ6rDQqbT-46" value="" style="rounded=0;whiteSpace=wrap;html=1;" vertex="1" parent="1">
          <mxGeometry x="370" y="195" width="96" height="40" as="geometry" />
        </mxCell>
        <mxCell id="X8sPkcAYPl1wZ6rDQqbT-48" value="" style="rounded=0;whiteSpace=wrap;html=1;" vertex="1" parent="1">
          <mxGeometry x="370" y="240" width="90" height="40" as="geometry" />
        </mxCell>
        <mxCell id="X8sPkcAYPl1wZ6rDQqbT-49" value="" style="rounded=0;whiteSpace=wrap;html=1;" vertex="1" parent="1">
          <mxGeometry x="364" y="290" width="100" height="40" as="geometry" />
        </mxCell>
        <mxCell id="X8sPkcAYPl1wZ6rDQqbT-50" value="gamesRouter" style="text;html=1;strokeColor=none;fillColor=none;align=center;verticalAlign=middle;whiteSpace=wrap;rounded=0;" vertex="1" parent="1">
          <mxGeometry x="394" y="205" width="40" height="20" as="geometry" />
        </mxCell>
        <mxCell id="X8sPkcAYPl1wZ6rDQqbT-51" value="gamesRouter" style="text;html=1;strokeColor=none;fillColor=none;align=center;verticalAlign=middle;whiteSpace=wrap;rounded=0;" vertex="1" parent="1">
          <mxGeometry x="394" y="300" width="40" height="20" as="geometry" />
        </mxCell>
        <mxCell id="X8sPkcAYPl1wZ6rDQqbT-52" value="gamesRouter" style="text;html=1;strokeColor=none;fillColor=none;align=center;verticalAlign=middle;whiteSpace=wrap;rounded=0;" vertex="1" parent="1">
          <mxGeometry x="390" y="250" width="40" height="20" as="geometry" />
        </mxCell>
      </root>
    </mxGraphModel>
  </diagram>
</mxfile>
